<?xml version="1.0" encoding="utf-8"?>
<!-- Generator: Adobe Illustrator 22.1.0, SVG Export Plug-In . SVG Version: 6.00 Build 0)  -->
<svg version="1.1" id="Layer_1" xmlns="http://www.w3.org/2000/svg" xmlns:xlink="http://www.w3.org/1999/xlink" x="0px" y="0px"
	 viewBox="0 0 789.5 261.5" style="enable-background:new 0 0 789.5 261.5;" xml:space="preserve">
<g>
	<path class="st0" d="M13.6,145.7c0-69.6,59.8-126.2,133.2-126.2c35.5,0,68.9,13.1,94.1,36.8c3.7,3.5,7.2,7.2,10.4,11
		C228.3,27.2,184.5,0,134.2,0C60.1,0,0,58.9,0,131.6c0,45.9,24,86.3,60.3,109.9C31.7,218.3,13.6,184,13.6,145.7z"/>
	<path class="st0" d="M165.4,254.6c-59.9,0-108.7-50.9-108.7-113.4c0-55.4,38.2-101.6,88.6-111.4C78.2,30.6,23.9,82.3,23.9,145.7
		c0,63.9,55.1,115.9,122.9,115.9c4.2,0,8.3-0.2,12.4-0.6c20.2-1.9,39-8.5,55.2-18.5c-8.1,4.3-16.8,7.6-26,9.6
		C181,253.7,173.3,254.6,165.4,254.6z"/>
	<path class="st0" d="M168.1,227.6c-4.9,0-9.7-0.3-14.5-0.9c16.4-5,30.6-15.5,40.4-29.3c-13.6,10.3-30.6,16.5-48.9,16.5
		c-36.7,0-67.7-24.5-78-58.2c6.7,50.5,48.2,89.6,98.3,89.6c40.3,0,75-25.2,90.6-61.4C237,210.2,204.7,227.6,168.1,227.6z"/>
</g>
<g>
	<path class="st0" d="M124.4,172.2c-7.9,0-14.4-2.8-19.4-8.4c-5-5.6-7.5-12.6-7.5-21.1v-26c0-8.5,2.5-15.3,7.5-20.7
		c5-5.3,11.5-8,19.4-8h55.3v15.9h-55.3c-3.5,0-6.3,1.5-8.5,4.4c-2.2,2.9-3.3,6.3-3.3,10.2v23.4c0,3.9,1.1,7.3,3.3,10.1
		c2.2,2.9,5.1,4.3,8.5,4.3h55.3v15.9H124.4z"/>
	<path class="st0" d="M250,172.2h-35.6c-7.9,0-14.4-2.8-19.5-8.5c-5.1-5.7-7.6-12.7-7.6-21v-26c0-8.5,2.5-15.3,7.5-20.7
		c5-5.3,11.5-8,19.6-8h34.9c7.9,0,14.4,2.7,19.5,8.1c5.1,5.4,7.6,12.3,7.6,20.6v26c0,8-2.3,14.8-7,20.5
		C264.3,169.2,257.9,172.2,250,172.2z M261.3,118.5c0-3.9-1.1-7.3-3.3-10.2c-2.2-2.9-5.1-4.4-8.7-4.4h-35.1c-3.6,0-6.5,1.5-8.7,4.4
		c-2.2,2.9-3.3,6.3-3.3,10.2v23.4c0,3.9,1.1,7.3,3.3,10.1c2.2,2.9,5.1,4.3,8.7,4.3h35.1c3.6,0,6.5-1.4,8.7-4.3
		c2.2-2.9,3.3-6.3,3.3-10.1V118.5z"/>
	<path class="st0" d="M360.7,172v-54.3c0-3.7-1.2-6.8-3.6-9.4c-2.4-2.6-5.4-3.8-8.9-3.8h-33.9c-3.6,0-6.5,1.3-8.9,3.8
		c-2.4,2.6-3.6,5.7-3.6,9.4V172h-15v-54.3c0-8.4,2.6-15.3,7.9-20.8c5.2-5.5,11.8-8.3,19.7-8.3h33.9c7.9,0,14.5,3,19.7,8.9
		c5.2,5.9,7.9,13,7.9,21.4V172H360.7z"/>
	<path class="st0" d="M442.2,171.9h-55.3V156h53c5,0,7.5-3.4,7.5-10.2c0-6-2.2-9-6.7-9h-35.9c-6.2,0-11.4-2.5-15.4-7.5
		c-3.8-4.7-5.7-10.4-5.7-17c0-6.7,2-12.5,5.9-17.4c3.9-4.9,9-7.4,15.2-7.4H460v15.9h-53c-5,0-7.5,2.8-7.5,8.5c0,6,2.2,9,6.5,9h36.1
		c6.2,0,11.3,2.4,15.2,7.3c3.9,4.8,5.8,10.6,5.8,17.3c0,7-1.7,13-5.2,18.1C454.3,169.1,449,171.9,442.2,171.9z"/>
	<rect x="472.6" y="66.7" class="st0" width="15.9" height="15.5"/>
	<rect x="472.6" y="89.6" class="st0" width="15.9" height="82.4"/>
	<path class="st0" d="M524.6,172.2c-7.2,0-13.2-2.8-18-8.5c-4.7-5.7-7.1-12.7-7.1-21.1V60.4h14v81.4c0,3.9,1,7.3,3.1,10.2
		c2.1,2.9,4.7,4.3,7.9,4.3h11.2v15.9H524.6z"/>
	<rect x="544.5" y="66.7" class="st0" width="15.9" height="15.5"/>
	<rect x="544.5" y="89.6" class="st0" width="15.9" height="82.4"/>
	<path class="st0" d="M632.9,172h-33.9c-7.9,0-14.5-2.8-19.7-8.3c-5.2-5.5-7.9-12.5-7.9-20.8V88.6h15v54.3c0,3.7,1.2,6.8,3.6,9.4
		c2.4,2.6,5.4,3.8,8.9,3.8h33.9c3.6,0,6.5-1.3,8.9-3.8c2.4-2.6,3.6-5.7,3.6-9.4V88.6h15v53.1c0,8.1-2.5,15.2-7.5,21.1
		C647.6,169,640.9,172,632.9,172z"/>
	<path class="st0" d="M772.4,172v-54.3c0-3.7-1.2-6.8-3.7-9.4c-2.5-2.6-5.5-3.8-9.1-3.8h-22.9V172h-15v-67.5h-21.2
		c-3.6,0-6.6,1.3-9.1,3.8c-2.5,2.6-3.7,5.7-3.7,9.4V172h-15v-54.3c0-8.4,2.6-15.3,7.9-20.8c5.3-5.5,11.9-8.3,20-8.3h59
		c8,0,14.7,3,20,8.9c5.3,5.9,7.9,13,7.9,21.4V172H772.4z"/>
</g>
<g>
	<path class="st0" d="M361.2,212.3v-3.1h19v3.1h-7.7v28.2h-3.5v-28.2H361.2z"/>
	<path class="st0" d="M396.2,209.3h19.9v3.1h-16.4v9.8H416v3.1h-16.3v12.3H416v3.1h-19.8V209.3z"/>
	<path class="st0" d="M465.4,215.1l-2.7,1.9c-1.5-1.8-3.3-3.1-5.4-4c-2.1-0.9-4.4-1.4-7-1.4c-2.8,0-5.3,0.6-7.7,1.8
		c-2.4,1.2-4.2,2.8-5.5,4.8c-1.3,2-2,4.3-2,6.8c0,3.8,1.5,7,4.4,9.5c2.9,2.5,6.6,3.8,11,3.8c4.9,0,8.9-1.7,12.2-5.1l2.7,1.9
		c-1.7,2-3.9,3.5-6.5,4.6c-2.6,1.1-5.5,1.6-8.7,1.6c-6.1,0-10.9-1.8-14.4-5.5c-2.9-3.1-4.4-6.8-4.4-11.1c0-4.6,1.8-8.4,5.3-11.5
		c3.6-3.1,8-4.7,13.4-4.7c3.2,0,6.2,0.6,8.8,1.7C461.6,211.4,463.8,213,465.4,215.1z"/>
	<path class="st0" d="M483.4,209.3h3.5v13.1h17.7v-13.1h3.5v31.2h-3.5v-15.1h-17.7v15.1h-3.5V209.3z"/>
	<path class="st0" d="M527.4,240.5v-31.2h0.7l23.1,23.9v-23.9h3.4v31.2h-0.8L531,216.8v23.7H527.4z"/>
	<path class="st0" d="M590.7,208.5c5.3,0,9.7,1.6,13.2,4.7c3.5,3.2,5.3,7,5.3,11.7c0,4.6-1.8,8.5-5.3,11.6
		c-3.5,3.2-7.8,4.8-12.9,4.8c-5.2,0-9.5-1.6-13-4.8c-3.5-3.2-5.3-7-5.3-11.5c0-3,0.8-5.8,2.4-8.4c1.6-2.6,3.8-4.6,6.6-6
		C584.4,209.2,587.5,208.5,590.7,208.5z M590.9,211.5c-2.6,0-5,0.6-7.3,1.8c-2.3,1.2-4.1,2.8-5.4,4.9c-1.3,2-1.9,4.3-1.9,6.8
		c0,3.7,1.4,6.8,4.3,9.4c2.9,2.6,6.3,3.8,10.3,3.8c2.7,0,5.2-0.6,7.5-1.8c2.3-1.2,4.1-2.8,5.4-4.8c1.3-2,1.9-4.3,1.9-6.8
		c0-2.5-0.6-4.7-1.9-6.7c-1.3-2-3.1-3.6-5.4-4.8C595.9,212.1,593.5,211.5,590.9,211.5z"/>
	<path class="st0" d="M627.2,209.3h3.5v28.2H644v3h-16.8V209.3z"/>
	<path class="st0" d="M677,208.5c5.3,0,9.7,1.6,13.2,4.7c3.5,3.2,5.3,7,5.3,11.7c0,4.6-1.8,8.5-5.3,11.6c-3.5,3.2-7.8,4.8-12.9,4.8
		c-5.1,0-9.5-1.6-13-4.8c-3.5-3.2-5.3-7-5.3-11.5c0-3,0.8-5.8,2.4-8.4c1.6-2.6,3.8-4.6,6.6-6C670.8,209.2,673.8,208.5,677,208.5z
		 M677.2,211.5c-2.6,0-5,0.6-7.3,1.8c-2.3,1.2-4.1,2.8-5.4,4.9c-1.3,2-1.9,4.3-1.9,6.8c0,3.7,1.4,6.8,4.3,9.4
		c2.9,2.6,6.3,3.8,10.3,3.8c2.7,0,5.2-0.6,7.5-1.8c2.3-1.2,4.1-2.8,5.4-4.8c1.3-2,1.9-4.3,1.9-6.8c0-2.5-0.6-4.7-1.9-6.7
		c-1.3-2-3.1-3.6-5.4-4.8C682.3,212.1,679.8,211.5,677.2,211.5z"/>
	<path class="st0" d="M747,214.5l-2.7,2.3c-1.9-1.7-4-3-6.4-3.9c-2.3-0.9-4.5-1.3-6.7-1.3c-2.7,0-5.3,0.6-7.8,1.8
		c-2.5,1.2-4.4,2.8-5.7,4.9c-1.3,2.1-2,4.2-2,6.5c0,2.4,0.7,4.6,2.1,6.7c1.4,2.1,3.3,3.8,5.8,5c2.5,1.2,5.2,1.8,8.1,1.8
		c3.6,0,6.6-0.9,9.1-2.7c2.5-1.8,3.9-4.2,4.4-7.1h-11.1v-3h15c0,4.8-1.6,8.7-4.8,11.5c-3.2,2.8-7.4,4.3-12.7,4.3
		c-6.4,0-11.5-2-15.2-5.9c-2.9-3-4.3-6.5-4.3-10.5c0-3,0.8-5.7,2.5-8.3c1.7-2.5,3.9-4.5,6.8-6c2.9-1.4,6.1-2.2,9.8-2.2
		c2.9,0,5.7,0.5,8.3,1.4C742,210.9,744.5,212.4,747,214.5z"/>
	<path class="st0" d="M763.9,209.3h4l8.9,12.9l8.7-12.9h4l-11,16.3v14.9h-3.4v-14.9L763.9,209.3z"/>
</g>
<path class="st0" d="M355,237.6c0,2.2-1.8,3.9-3.9,3.9c-2.2,0-3.9-1.8-3.9-3.9c0-2.2,1.7-3.9,3.9-3.9
	C353.3,233.7,355,235.4,355,237.6z"/>
</svg>
